<svg xmlns="http://www.w3.org/2000/svg" fill="none" viewBox="0 0 102 16" width="102" height="16"><path clip-rule="evenodd" fill="black" fill-rule="evenodd" d="M 96.3251 8.81282 L 94.2551 3.27202 H 93.7539 L 91.6866 8.81282 H 96.3251 Z M 101.009 15.4324 H 98.7981 L 97.0654 10.7941 H 90.9473 L 89.2168 15.4324 H 87.0059 L 92.7477 0.115234 H 95.2677 L 101.009 15.4324 Z"></path><path clip-rule="evenodd" fill="black" fill-rule="evenodd" d="M 77.2287 7.75418 C 78.8209 7.75418 80.7185 7.26776 80.7185 4.95303 C 80.7185 2.49924 78.5327 2.13326 77.2287 2.13326 H 72.5613 V 7.75418 H 77.2287 Z M 78.9907 9.58199 L 82.6929 15.4195 H 80.1575 L 76.6063 9.7903 H 72.5613 V 15.4195 H 70.4587 V 0.115234 H 77.2287 C 81.0916 0.115234 82.8205 2.54524 82.8205 4.95303 C 82.8205 8.40497 79.9878 9.35506 78.9907 9.58199 Z"></path><path clip-rule="evenodd" fill="black" fill-rule="evenodd" d="M 63.076 9.60628 C 63.076 9.77066 63.0295 13.6284 59.0118 13.6284 C 55.2722 13.6284 54.9556 10.5486 54.9476 9.60628 V 0.115234 H 52.844 V 9.60628 C 52.844 12.3754 54.4597 15.6097 59.0118 15.6097 C 63.5639 15.6097 65.1796 12.3754 65.1796 9.60628 V 0.115234 H 63.076 V 9.60628 Z"></path><path clip-rule="evenodd" fill="black" fill-rule="evenodd" d="M 48.6586 0.115234 V 2.15187 H 38.4 V 6.16157 H 47.5116 V 8.17391 H 38.4 V 15.4195 H 36.2969 V 0.115234 H 48.6586 Z"></path><path clip-rule="evenodd" fill="black" fill-rule="evenodd" d="M 27.6838 0.115234 V 12.2782 H 27.2247 L 19.802 0.115234 H 17.0808 V 15.4195 H 19.1839 V 3.64162 H 19.6429 L 26.7289 15.4195 H 29.7869 V 0.115234 H 27.6838 Z"></path><path clip-rule="evenodd" fill="black" fill-rule="evenodd" d="M 0 0.115234 V 2.00455 H 4.67056 V 13.5307 H 0 V 15.4195 H 11.4437 V 13.5307 H 6.77364 V 2.00455 H 11.4437 V 0.115234 H 0 Z"></path></svg>